<svg width="59" height="34" viewBox="0 0 59 34" fill="none" xmlns="http://www.w3.org/2000/svg">
<path d="M29.5789 24.9018C25.3947 35.6386 19.0789 31.6053 17.5 29.1649C15.9211 26.7246 4 2.086 4 2.086L14.7368 2.00705C18.2895 1.77023 21.2368 7.55968 22.4737 10.8492C22.3947 10.2965 24.6842 4.29652 29.6579 3.98073M29.5789 24.9208C33.7632 35.6665 40.0789 31.6298 41.6579 29.1874C43.2368 26.7451 55.1579 2.08607 55.1579 2.08607L44.4211 2.00705C40.8684 1.77004 37.9211 7.56429 36.6842 10.8565C36.7632 10.3034 34.4737 4.29842 29.5 3.98237" stroke="url(#paint0_linear)" stroke-width="4"/>
<defs>
<linearGradient id="paint0_linear" x1="57.5" y1="-1.5" x2="5" y2="32" gradientUnits="userSpaceOnUse">
<stop stop-color="#4353FF"/>
<stop offset="1" stop-color="#0056FB"/>
</linearGradient>
</defs>
</svg>
